<?xml version="1.0" encoding="UTF-8"?>
<!DOCTYPE svg PUBLIC "-//W3C//DTD SVG 1.1//EN" "http://www.w3.org/Graphics/SVG/1.1/DTD/svg11.dtd">
<!-- Creator: CorelDRAW X7 -->
<svg xmlns="http://www.w3.org/2000/svg" xml:space="preserve" width="169.686mm" height="102.658mm" version="1.1" style="shape-rendering:geometricPrecision; text-rendering:geometricPrecision; image-rendering:optimizeQuality; fill-rule:evenodd; clip-rule:evenodd"
viewBox="0 0 16969 10266"
 xmlns:xlink="http://www.w3.org/1999/xlink">
 <defs>
  <style type="text/css">
   <![CDATA[
    .fil2 {fill:none}
    .fil1 {fill:#214573}
    .fil0 {fill:#7F662B}
   ]]>
  </style>
 </defs>
 <g id="Layer_x0020_1">
  <metadata id="CorelCorpID_0Corel-Layer"/>
  <path class="fil0" d="M15959 4361l88 316 321 -87 -85 -315 -324 86zm-2076 -931l316 -85 -86 -318 -318 85 88 318zm-678 492l235 -233 -235 -234 -232 234 232 233zm-337 763l84 -320 -319 -86 -85 320 320 86zm2603 -998l233 232 236 -235 -232 -234 -237 237zm-761 -338l318 83 85 -320 -317 -86 -86 323zm-399 1206l79 -19 -20 -81 -80 20 21 80zm-170 124l60 -58 -58 -60 -61 58 59 60zm-84 191l22 -80 -82 -22 -20 80 80 22zm775 -80l24 78 80 -21 -22 -79 -82 22zm-122 -169l58 58 60 -58 -60 -60 -58 60zm-191 -85l80 21 22 -82 -80 -20 -22 81zm-279 -169l117 -31 -31 -119 -119 31 33 119zm-255 185l89 -89 -88 -86 -89 86 88 89zm-127 287l31 -119 -119 -33 -31 119 119 33zm1162 -121l35 118 121 -32 -33 -119 -123 33zm-183 -255l88 89 89 -89 -88 -86 -89 86zm-285 -127l117 33 33 -121 -119 -33 -31 121zm-414 -231l174 -45 -47 -175 -172 43 45 177zm-371 272l130 -129 -130 -130 -129 128 129 131zm-186 418l45 -176 -174 -45 -47 174 176 47zm1704 -177l50 174 176 -47 -47 -174 -179 47zm-269 -372l128 127 129 -128 -127 -129 -130 130zm-420 -186l175 45 47 -177 -175 -47 -47 179zm-572 -254l238 -64 -63 -240 -239 63 64 241zm-508 367l176 -174 -174 -176 -176 174 174 176zm-254 573l65 -241 -240 -63 -64 240 239 64zm2322 -243l69 239 240 -65 -64 -238 -245 64zm-366 -506l175 174 177 -175 -175 -176 -177 177zm-506 -496l238 64 -64 241 -239 -62 65 -243z"/>
  <path class="fil1" d="M14879 5816c134,-18 280,-55 437,-111 159,-57 320,-143 483,-257 163,-114 320,-265 470,-454 150,-189 285,-425 403,-708 0,1 -14,26 -41,75 -26,50 -66,115 -121,194 -54,80 -122,168 -205,262 -82,93 -179,185 -290,275 -111,91 -236,172 -376,242 -141,70 -296,122 -465,155 -170,33 -356,39 -556,17 -40,41 -90,62 -149,63 -61,-1 -111,-22 -151,-63 -200,21 -385,15 -554,-17 -170,-33 -325,-85 -466,-155 -140,-71 -265,-152 -375,-242 -111,-90 -208,-183 -290,-277 -83,-93 -151,-180 -206,-260 -54,-79 -94,-143 -120,-193 -27,-50 -41,-75 -41,-76 126,300 270,549 431,744 161,195 328,349 503,461 174,111 343,193 507,244 165,51 314,82 447,94 -169,47 -329,116 -478,207 -150,90 -289,192 -415,304 -127,112 -239,225 -337,338 -99,113 -182,215 -249,307 -67,92 -116,163 -147,213 -26,28 -40,43 -40,44 8,-5 15,-11 22,-17 -12,21 -18,31 -18,31 16,-19 34,-37 51,-56 239,-184 470,-324 693,-420 221,-96 431,-158 630,-187 197,-28 381,-32 551,-12 169,19 322,51 458,97 134,45 250,94 346,146 95,51 168,95 219,131 51,38 77,57 77,58 -194,-188 -385,-330 -573,-427 -188,-98 -371,-159 -549,-184 -177,-24 -347,-22 -509,7 -161,28 -312,73 -453,136 -140,63 -267,132 -382,208 -114,78 -212,152 -295,224 246,-238 482,-423 710,-556 229,-133 447,-223 655,-272 209,-50 405,-67 588,-52 183,13 353,47 507,102 155,54 293,118 415,192 123,74 227,147 312,218 86,72 151,132 196,179 45,48 68,72 69,73 -153,-210 -304,-386 -454,-529 -150,-142 -298,-255 -444,-339 -146,-83 -290,-142 -431,-177zm-593 -644c1,-55 20,-102 57,-139 38,-38 85,-57 140,-58 56,1 103,20 141,58 38,37 57,84 58,139 -1,57 -20,104 -58,141 -38,38 -85,57 -141,58 -55,-1 -102,-20 -140,-58 -37,-37 -56,-84 -57,-141z"/>
  <rect class="fil2" x="12202" y="2831" width="4531" height="4604"/>
 </g>
</svg>
